<?xml version="1.0" encoding="UTF-8"?>
<!DOCTYPE svg PUBLIC "-//W3C//DTD SVG 1.1//EN" "http://www.w3.org/Graphics/SVG/1.1/DTD/svg11.dtd">
<svg xmlns="http://www.w3.org/2000/svg" version="1.1" width="500px" height="500px" style="shape-rendering:geometricPrecision; text-rendering:geometricPrecision; image-rendering:optimizeQuality; fill-rule:evenodd; clip-rule:evenodd" xmlns:xlink="http://www.w3.org/1999/xlink">
<g><path style="opacity:1" fill="#fefefe" d="M -0.5,-0.5 C 166.167,-0.5 332.833,-0.5 499.5,-0.5C 499.5,166.167 499.5,332.833 499.5,499.5C 332.833,499.5 166.167,499.5 -0.5,499.5C -0.5,332.833 -0.5,166.167 -0.5,-0.5 Z"/></g>
<g><path style="opacity:1" fill="#3bb72d" d="M 300.5,43.5 C 295.578,44.0847 290.911,45.5847 286.5,48C 270.092,58.0659 253.426,67.7326 236.5,77C 222.578,86.681 214.078,99.8477 211,116.5C 210.333,140.167 210.333,163.833 211,187.5C 211.941,190.154 212.774,192.821 213.5,195.5C 207.427,192.712 201.927,189.045 197,184.5C 195.803,181.911 194.803,179.244 194,176.5C 193.333,153.5 193.333,130.5 194,107.5C 196.538,92.9238 203.372,80.7571 214.5,71C 234.241,58.9343 254.241,47.2677 274.5,36C 278.741,34.5427 283.074,34.2093 287.5,35C 291.898,37.8572 296.232,40.6905 300.5,43.5 Z"/></g>
<g><path style="opacity:1" fill="#f1433f" d="M 300.5,43.5 C 308.317,44.4829 313.151,48.8163 315,56.5C 315.667,81.1667 315.667,105.833 315,130.5C 311.882,144.239 305.049,155.739 294.5,165C 274.61,177.411 254.277,189.077 233.5,200C 225.644,203.158 218.977,201.658 213.5,195.5C 212.774,192.821 211.941,190.154 211,187.5C 210.333,163.833 210.333,140.167 211,116.5C 214.078,99.8477 222.578,86.681 236.5,77C 253.426,67.7326 270.092,58.0659 286.5,48C 290.911,45.5847 295.578,44.0847 300.5,43.5 Z"/></g>
<g><path style="opacity:1" fill="#fdfcfb" d="M 293.5,46.5 C 303.056,44.2747 309.556,47.608 313,56.5C 313.667,80.8333 313.667,105.167 313,129.5C 309.906,144.2 302.406,156.034 290.5,165C 270.965,176.6 251.298,187.933 231.5,199C 221.063,201.239 214.897,197.072 213,186.5C 212.333,163.5 212.333,140.5 213,117.5C 215.63,102.564 222.796,90.3978 234.5,81C 254.23,69.4735 273.896,57.9735 293.5,46.5 Z"/></g>
<g><path style="opacity:1" fill="#090e07" d="M 282.5,119.5 C 282.666,125.176 282.499,130.843 282,136.5C 277.579,140.962 272.412,144.296 266.5,146.5C 271.61,137.267 276.943,128.267 282.5,119.5 Z"/></g>
<g><path style="opacity:1" fill="#3fa835" d="M 295.5,95.5 C 293.003,101.165 290.003,106.498 286.5,111.5C 286.979,104.702 289.979,99.3683 295.5,95.5 Z"/></g>
<g><path style="opacity:1" fill="#498741" d="M 297.5,92.5 C 297.573,94.0269 296.906,95.0269 295.5,95.5C 295.427,93.9731 296.094,92.9731 297.5,92.5 Z"/></g>
<g><path style="opacity:1" fill="#37b72b" d="M 282.5,119.5 C 276.943,128.267 271.61,137.267 266.5,146.5C 256.064,153.226 245.397,159.726 234.5,166C 232.26,166.977 229.927,167.477 227.5,167.5C 227.333,152.496 227.5,137.496 228,122.5C 229.167,121.333 230.333,120.167 231.5,119C 246.029,110.905 260.363,102.572 274.5,94C 276.909,92.2932 279.575,91.4598 282.5,91.5C 282.5,100.833 282.5,110.167 282.5,119.5 Z"/></g>
<g><path style="opacity:1" fill="#0e0f0e" d="M 286.5,111.5 C 290.003,106.498 293.003,101.165 295.5,95.5C 296.906,95.0269 297.573,94.0269 297.5,92.5C 297.811,91.5222 298.478,90.8555 299.5,90.5C 300.665,99.8155 300.832,109.149 300,118.5C 296.591,119.622 293.091,119.789 289.5,119C 287.253,117.005 286.253,114.505 286.5,111.5 Z"/></g>
<g><path style="opacity:1" fill="#454545" d="M 144.5,232.5 C 183.167,231.167 221.833,231.167 260.5,232.5C 241.5,232.5 222.5,232.5 203.5,232.5C 203.5,236.5 203.5,240.5 203.5,244.5C 210.687,244.175 217.687,244.509 224.5,245.5C 209.833,245.5 195.167,245.5 180.5,245.5C 187.313,244.509 194.313,244.175 201.5,244.5C 201.5,240.5 201.5,236.5 201.5,232.5C 182.5,232.5 163.5,232.5 144.5,232.5 Z"/></g>
<g><path style="opacity:1" fill="#0f0f0f" d="M 263.5,303.5 C 268.056,301.558 273.056,300.892 278.5,301.5C 280.021,309.187 284.688,313.687 292.5,315C 300.987,316.401 308.987,315.068 316.5,311C 324.158,302.268 322.824,295.268 312.5,290C 303.576,287.035 294.576,284.369 285.5,282C 263.873,272.445 259.873,258.112 273.5,239C 288.563,228.853 304.229,227.853 320.5,236C 326.379,240.918 330.379,247.085 332.5,254.5C 327.533,255.662 322.533,255.829 317.5,255C 314.084,246.615 307.751,242.782 298.5,243.5C 291.034,242.819 285.201,245.486 281,251.5C 279.574,256.757 280.741,261.257 284.5,265C 287.167,266.333 289.833,267.667 292.5,269C 304.322,271.783 315.655,275.783 326.5,281C 337.353,292.248 338.353,304.414 329.5,317.5C 318.602,326.894 305.936,330.394 291.5,328C 276.367,326.362 267.034,318.196 263.5,303.5 Z"/></g>
<g><path style="opacity:1" fill="#080808" d="M 144.5,232.5 C 163.5,232.5 182.5,232.5 201.5,232.5C 201.5,236.5 201.5,240.5 201.5,244.5C 194.313,244.175 187.313,244.509 180.5,245.5C 180.5,272.5 180.5,299.5 180.5,326.5C 175.833,326.5 171.167,326.5 166.5,326.5C 166.5,299.5 166.5,272.5 166.5,245.5C 159.167,245.5 151.833,245.5 144.5,245.5C 144.5,241.167 144.5,236.833 144.5,232.5 Z"/></g>
<g><path style="opacity:1" fill="#080808" d="M 260.5,232.5 C 260.5,236.833 260.5,241.167 260.5,245.5C 253.167,245.5 245.833,245.5 238.5,245.5C 238.5,272.5 238.5,299.5 238.5,326.5C 233.833,326.5 229.167,326.5 224.5,326.5C 224.5,299.5 224.5,272.5 224.5,245.5C 217.687,244.509 210.687,244.175 203.5,244.5C 203.5,240.5 203.5,236.5 203.5,232.5C 222.5,232.5 241.5,232.5 260.5,232.5 Z"/></g>
<g><path style="opacity:1" fill="#ececec" d="M 291.5,235.5 C 299.801,234.752 307.801,235.918 315.5,239C 319.69,241.69 323.024,245.19 325.5,249.5C 323.833,250.833 322.167,250.833 320.5,249.5C 318.134,244.304 314.134,241.137 308.5,240C 298.493,237.074 289.159,238.407 280.5,244C 271.478,257.274 274.478,266.941 289.5,273C 301.389,275.507 312.723,279.507 323.5,285C 330.137,290.711 332.304,297.877 330,306.5C 323.822,319.262 313.488,324.928 299,323.5C 288.03,324.514 279.03,320.847 272,312.5C 270.589,310.35 269.755,308.016 269.5,305.5C 271.199,305.34 272.866,305.506 274.5,306C 276.411,311.579 280.077,315.579 285.5,318C 297.183,321.458 308.517,320.458 319.5,315C 331.145,300.607 328.145,290.274 310.5,284C 302.549,281.542 294.549,279.209 286.5,277C 271.854,271.715 267.354,261.882 273,247.5C 277.652,241.095 283.818,237.095 291.5,235.5 Z"/></g>
<g><path style="opacity:1" fill="#f4f4f4" d="M 149.5,236.5 C 165.5,236.5 181.5,236.5 197.5,236.5C 197.5,237.833 197.5,239.167 197.5,240.5C 190.167,240.5 182.833,240.5 175.5,240.5C 175.5,267.5 175.5,294.5 175.5,321.5C 174.167,321.5 172.833,321.5 171.5,321.5C 171.5,294.5 171.5,267.5 171.5,240.5C 164.167,240.5 156.833,240.5 149.5,240.5C 149.5,239.167 149.5,237.833 149.5,236.5 Z"/></g>
<g><path style="opacity:1" fill="#f4f4f4" d="M 207.5,236.5 C 223.5,236.5 239.5,236.5 255.5,236.5C 255.5,237.833 255.5,239.167 255.5,240.5C 248.167,240.5 240.833,240.5 233.5,240.5C 233.5,267.5 233.5,294.5 233.5,321.5C 232.167,321.5 230.833,321.5 229.5,321.5C 229.5,294.5 229.5,267.5 229.5,240.5C 222.167,240.5 214.833,240.5 207.5,240.5C 207.5,239.167 207.5,237.833 207.5,236.5 Z"/></g>
<g><path style="opacity:1" fill="#f6262b" d="M 126.5,315.5 C 130.785,299.109 124.452,290.109 107.5,288.5C 103.437,270.716 92.604,264.382 75,269.5C 71.0898,263.083 65.5898,258.75 58.5,256.5C 66.7071,245.624 77.3737,242.457 90.5,247C 96.057,249.224 100.39,252.891 103.5,258C 108.797,257.562 114.13,257.562 119.5,258C 129.494,260.827 135.494,267.327 137.5,277.5C 155.833,281 161.333,291.333 154,308.5C 152.062,311.106 149.562,312.939 146.5,314C 139.924,315.377 133.257,315.877 126.5,315.5 Z"/></g>
<g><path style="opacity:1" fill="#f6272b" d="M 461.5,315.5 C 465.657,299.839 459.657,290.506 443.5,287.5C 438.356,270.761 427.356,264.761 410.5,269.5C 406.292,263.295 400.625,258.962 393.5,256.5C 401.121,246.536 411.121,243.036 423.5,246C 430.479,248.641 435.979,253.141 440,259.5C 451.741,254.785 461.408,257.452 469,267.5C 471.035,270.561 472.201,273.895 472.5,277.5C 490.45,280.398 496.284,290.398 490,307.5C 487.736,310.433 484.902,312.6 481.5,314C 474.924,315.377 468.257,315.877 461.5,315.5 Z"/></g>
<g><path style="opacity:1" fill="#38b72b" d="M 58.5,256.5 C 65.5898,258.75 71.0898,263.083 75,269.5C 92.604,264.382 103.437,270.716 107.5,288.5C 124.452,290.109 130.785,299.109 126.5,315.5C 123.038,321.119 118.038,324.619 111.5,326C 81.8333,326.667 52.1667,326.667 22.5,326C 6.42311,319.687 2.25644,308.854 10,293.5C 13.5169,289.816 17.6836,287.149 22.5,285.5C 24.7644,263.401 36.7644,253.735 58.5,256.5 Z"/></g>
<g><path style="opacity:1" fill="#38b72b" d="M 393.5,256.5 C 400.625,258.962 406.292,263.295 410.5,269.5C 427.356,264.761 438.356,270.761 443.5,287.5C 459.657,290.506 465.657,299.839 461.5,315.5C 458.062,321.086 453.062,324.586 446.5,326C 416.833,326.667 387.167,326.667 357.5,326C 341.102,319.14 337.269,307.974 346,292.5C 349.195,289.142 353.028,286.809 357.5,285.5C 360.119,263.859 372.119,254.193 393.5,256.5 Z"/></g>
<g><path style="opacity:1" fill="#828282" d="M 278.5,301.5 C 273.056,300.892 268.056,301.558 263.5,303.5C 262.596,302.791 262.263,301.791 262.5,300.5C 268.026,300.179 273.36,300.512 278.5,301.5 Z"/></g>
<g><path style="opacity:1" fill="#151515" d="M 146.5,352.5 C 148.275,356.386 149.108,360.72 149,365.5C 149.717,364.956 150.217,364.289 150.5,363.5C 151.933,362.167 153.267,360.667 154.5,359C 155.5,358.333 156.5,358.333 157.5,359C 155.5,361.333 153.5,363.667 151.5,366C 153.598,368.854 155.931,371.521 158.5,374C 157.5,374.667 156.5,374.667 155.5,374C 153.288,371.957 151.288,369.791 149.5,367.5C 148.833,369.833 148.167,372.167 147.5,374.5C 146.503,367.197 146.169,359.863 146.5,352.5 Z"/></g>
<g><path style="opacity:1" fill="#8e8e8e" d="M 146.5,352.5 C 147.209,351.596 148.209,351.263 149.5,351.5C 149.183,355.702 149.517,359.702 150.5,363.5C 150.217,364.289 149.717,364.956 149,365.5C 149.108,360.72 148.275,356.386 146.5,352.5 Z"/></g>
<g><path style="opacity:1" fill="#1e1e1e" d="M 161.5,352.5 C 164.957,352.667 165.29,353.667 162.5,355.5C 161.614,354.675 161.281,353.675 161.5,352.5 Z"/></g>
<g><path style="opacity:1" fill="#575757" d="M 236.5,359.5 C 236.44,360.043 236.107,360.376 235.5,360.5C 234.682,357.893 234.182,355.226 234,352.5C 233.5,359.826 233.334,367.159 233.5,374.5C 232.508,367.018 232.175,359.352 232.5,351.5C 233.5,351.5 234.5,351.5 235.5,351.5C 235.194,354.385 235.527,357.052 236.5,359.5 Z"/></g>
<g><path style="opacity:1" fill="#0e0e0e" d="M 293.5,371.5 C 294.398,372.158 295.398,372.824 296.5,373.5C 294.418,374.894 292.751,374.561 291.5,372.5C 291.334,365.825 291.5,359.158 292,352.5C 292.172,359.013 292.672,365.347 293.5,371.5 Z"/></g>
<g><path style="opacity:1" fill="#585858" d="M 293.5,371.5 C 292.672,365.347 292.172,359.013 292,352.5C 291.5,359.158 291.334,365.825 291.5,372.5C 290.509,365.687 290.175,358.687 290.5,351.5C 291.5,351.5 292.5,351.5 293.5,351.5C 293.5,358.167 293.5,364.833 293.5,371.5 Z"/></g>
<g><path style="opacity:1" fill="#575757" d="M 349.5,374.5 C 349.666,367.159 349.5,359.826 349,352.5C 348.818,355.226 348.318,357.893 347.5,360.5C 346.893,360.376 346.56,360.043 346.5,359.5C 347.473,357.052 347.806,354.385 347.5,351.5C 348.5,351.5 349.5,351.5 350.5,351.5C 350.825,359.352 350.492,367.018 349.5,374.5 Z"/></g>
<g><path style="opacity:1" fill="#0f0f0f" d="M 187.5,354.5 C 189.176,355.183 189.843,356.517 189.5,358.5C 196.167,359.167 196.167,359.833 189.5,360.5C 189.335,364.182 189.501,367.848 190,371.5C 191.509,372.09 193.009,372.756 194.5,373.5C 192.002,374.938 189.836,374.604 188,372.5C 187.501,368.514 187.334,364.514 187.5,360.5C 183.5,359.833 183.5,359.167 187.5,358.5C 187.5,357.167 187.5,355.833 187.5,354.5 Z"/></g>
<g><path style="opacity:1" fill="#070707" d="M 161.5,358.5 C 162.812,360.743 163.478,363.41 163.5,366.5C 163.167,369.167 162.833,371.833 162.5,374.5C 161.505,369.208 161.172,363.875 161.5,358.5 Z"/></g>
<g><path style="opacity:1" fill="#232323" d="M 302.5,358.5 C 310.987,357.496 314.487,361.163 313,369.5C 310.975,374.145 307.475,375.645 302.5,374C 297.197,368.76 297.197,363.594 302.5,358.5 Z"/></g>
<g><path style="opacity:1" fill="#161616" d="M 317.5,358.5 C 318.5,358.5 319.5,358.5 320.5,358.5C 320.334,362.846 320.501,367.179 321,371.5C 324.086,373.22 326.419,372.553 328,369.5C 328.175,365.789 328.675,362.122 329.5,358.5C 330.833,363.833 330.833,369.167 329.5,374.5C 328.808,373.975 328.308,373.308 328,372.5C 324.87,375.122 321.703,375.122 318.5,372.5C 317.557,367.9 317.223,363.233 317.5,358.5 Z"/></g>
<g><path style="opacity:1" fill="#1a1a1a" d="M 201.5,358.5 C 208.424,356.94 211.757,359.607 211.5,366.5C 207.833,366.5 204.167,366.5 200.5,366.5C 200.504,371.989 203.171,373.822 208.5,372C 209.424,370.511 210.424,370.344 211.5,371.5C 207.341,375.45 203.175,375.45 199,371.5C 196.606,366.527 197.44,362.194 201.5,358.5 Z"/></g>
<g><path style="opacity:1" fill="#151515" d="M 236.5,359.5 C 239.582,357.931 242.415,358.265 245,360.5C 245.828,365.202 245.662,369.869 244.5,374.5C 243.672,370.204 243.172,365.871 243,361.5C 240.408,360.018 238.075,360.352 236,362.5C 236.102,366.956 235.268,370.956 233.5,374.5C 233.334,367.159 233.5,359.826 234,352.5C 234.182,355.226 234.682,357.893 235.5,360.5C 236.107,360.376 236.44,360.043 236.5,359.5 Z"/></g>
<g><path style="opacity:1" fill="#1f1f1f" d="M 349.5,374.5 C 348.25,374.423 347.417,373.756 347,372.5C 344.503,374.478 341.669,374.978 338.5,374C 334.587,368.969 334.587,363.969 338.5,359C 341.261,358.278 343.927,358.445 346.5,359.5C 346.56,360.043 346.893,360.376 347.5,360.5C 348.318,357.893 348.818,355.226 349,352.5C 349.5,359.826 349.666,367.159 349.5,374.5 Z"/></g>
<g><path style="opacity:1" fill="#e1e1e1" d="M 202.5,360.5 C 206.851,359.533 209.185,361.2 209.5,365.5C 206.5,365.5 203.5,365.5 200.5,365.5C 200.392,363.486 201.058,361.82 202.5,360.5 Z"/></g>
<g><path style="opacity:1" fill="#171717" d="M 218.5,358.5 C 222.007,357.994 225.174,358.66 228,360.5C 228.089,363.022 227.255,363.188 225.5,361C 220.515,359.243 217.849,360.91 217.5,366C 217.312,371.812 219.979,373.812 225.5,372C 226.047,371.075 226.713,370.242 227.5,369.5C 228.731,370.651 228.731,371.817 227.5,373C 217.283,376.12 213.45,372.286 216,361.5C 217.045,360.627 217.878,359.627 218.5,358.5 Z"/></g>
<g><path style="opacity:1" fill="#171717" d="M 276.5,358.5 C 280.007,357.994 283.174,358.66 286,360.5C 286.089,363.022 285.255,363.188 283.5,361C 278.515,359.243 275.849,360.91 275.5,366C 275.312,371.812 277.979,373.812 283.5,372C 284.047,371.075 284.713,370.242 285.5,369.5C 286.731,370.651 286.731,371.817 285.5,373C 275.283,376.12 271.45,372.286 274,361.5C 275.045,360.627 275.878,359.627 276.5,358.5 Z"/></g>
<g><path style="opacity:1" fill="#fcfcfc" d="M 303.5,360.5 C 306.044,360.104 308.211,360.771 310,362.5C 311.004,365.993 310.504,369.159 308.5,372C 305.975,372.896 303.808,372.396 302,370.5C 301.037,366.851 301.537,363.518 303.5,360.5 Z"/></g>
<g><path style="opacity:1" fill="#fafafa" d="M 340.5,360.5 C 343.044,360.104 345.211,360.771 347,362.5C 348.004,365.993 347.504,369.159 345.5,372C 342.975,372.896 340.808,372.396 339,370.5C 338.037,366.851 338.537,363.518 340.5,360.5 Z"/></g>
<g><path style="opacity:1" fill="#191919" d="M 167.5,359.5 C 168.386,358.224 169.386,358.224 170.5,359.5C 171.909,363.316 173.576,366.983 175.5,370.5C 177.095,366.883 178.595,363.217 180,359.5C 180.893,358.289 181.726,358.289 182.5,359.5C 180.532,364.427 178.866,369.427 177.5,374.5C 176.022,374.762 174.689,374.429 173.5,373.5C 171.67,368.65 169.67,363.984 167.5,359.5 Z"/></g>
<g><path style="opacity:1" fill="#171717" d="M 252.5,358.5 C 254.857,358.337 257.19,358.503 259.5,359C 259.957,359.414 260.291,359.914 260.5,360.5C 258.013,360.782 255.347,360.782 252.5,360.5C 252.351,361.552 252.517,362.552 253,363.5C 254.945,364.863 257.112,365.697 259.5,366C 262.167,368.667 262.167,371.333 259.5,374C 255.712,375.116 252.378,374.45 249.5,372C 250,371.5 250.5,371 251,370.5C 254.248,373.259 257.082,373.093 259.5,370C 259.355,369.228 259.022,368.561 258.5,368C 251.427,367.498 249.427,364.332 252.5,358.5 Z"/></g>
<g><path style="opacity:1" fill="#2b2b2b" d="M 265.5,371.5 C 266.833,371.5 268.167,371.5 269.5,371.5C 269.5,372.5 269.5,373.5 269.5,374.5C 268.167,374.5 266.833,374.5 265.5,374.5C 265.5,373.5 265.5,372.5 265.5,371.5 Z"/></g>
</svg>
