<?xml version="1.0" encoding="UTF-8"?>
<!DOCTYPE svg PUBLIC "-//W3C//DTD SVG 1.1//EN" "http://www.w3.org/Graphics/SVG/1.1/DTD/svg11.dtd">
<svg xmlns="http://www.w3.org/2000/svg" version="1.1" width="500px" height="500px" style="shape-rendering:geometricPrecision; text-rendering:geometricPrecision; image-rendering:optimizeQuality; fill-rule:evenodd; clip-rule:evenodd" xmlns:xlink="http://www.w3.org/1999/xlink">
<g><path style="opacity:1" fill="#3eb62e" d="M 323.5,94.5 C 315.873,95.7506 308.54,98.2506 301.5,102C 273.241,117.934 245.241,134.268 217.5,151C 205.886,160.766 197.219,172.599 191.5,186.5C 188.967,192.604 187.133,198.937 186,205.5C 185.333,242.167 185.333,278.833 186,315.5C 186.874,319.288 188.041,322.954 189.5,326.5C 189.167,326.5 188.833,326.5 188.5,326.5C 180.734,323.116 173.401,318.95 166.5,314C 163.118,309.735 160.952,304.902 160,299.5C 159.333,262.833 159.333,226.167 160,189.5C 164.452,168.094 174.952,150.26 191.5,136C 210.725,124.557 230.058,113.391 249.5,102.5C 251.674,102.25 253.341,101.25 254.5,99.5C 263.111,93.8548 272.111,88.6881 281.5,84C 288.742,81.2291 296.076,80.8958 303.5,83C 310.055,87.0608 316.721,90.8942 323.5,94.5 Z"/></g>
<g><path style="opacity:0.149" fill="#ffcccd" d="M 331.5,97.5 C 333.027,97.427 334.027,98.0937 334.5,99.5C 332.973,99.573 331.973,98.9063 331.5,97.5 Z"/></g>
<g><path style="opacity:0.208" fill="#d1efcd" d="M 254.5,99.5 C 253.341,101.25 251.674,102.25 249.5,102.5C 250.659,100.75 252.326,99.7497 254.5,99.5 Z"/></g>
<g><path style="opacity:1" fill="#f93237" d="M 340.5,106.5 C 341.226,109.179 342.059,111.846 343,114.5C 343.667,152.5 343.667,190.5 343,228.5C 342.178,231.117 341.678,233.784 341.5,236.5C 341.737,237.791 341.404,238.791 340.5,239.5C 338.315,243.213 336.648,247.213 335.5,251.5C 335.672,252.492 335.338,253.158 334.5,253.5C 333.295,255.138 331.962,255.471 330.5,254.5C 335.828,245.517 339.161,235.85 340.5,225.5C 341.664,189.002 341.831,152.336 341,115.5C 340.626,113.509 339.793,111.842 338.5,110.5C 337.662,110.158 337.328,109.492 337.5,108.5C 336.075,104.26 337.075,103.593 340.5,106.5 Z"/></g>
<g><path style="opacity:0.475" fill="#fc9ca0" d="M 340.5,106.5 C 342.311,108.385 343.478,110.719 344,113.5C 344.667,152.167 344.667,190.833 344,229.5C 343.61,232.104 342.776,234.438 341.5,236.5C 341.678,233.784 342.178,231.117 343,228.5C 343.667,190.5 343.667,152.5 343,114.5C 342.059,111.846 341.226,109.179 340.5,106.5 Z"/></g>
<g><path style="opacity:0.275" fill="#fdbabd" d="M 273.5,122.5 C 271.664,124.588 269.331,125.921 266.5,126.5C 268.336,124.412 270.669,123.079 273.5,122.5 Z"/></g>
<g><path style="opacity:0.266" fill="#fcc3c6" d="M 338.5,110.5 C 339.793,111.842 340.626,113.509 341,115.5C 341.831,152.336 341.664,189.002 340.5,225.5C 340.667,189.498 340.5,153.498 340,117.5C 339.338,115.187 338.838,112.854 338.5,110.5 Z"/></g>
<g><path style="opacity:1" fill="#f4594b" d="M 323.5,94.5 C 326.397,95.129 329.064,96.129 331.5,97.5C 331.973,98.9063 332.973,99.573 334.5,99.5C 337.661,100.812 339.661,103.145 340.5,106.5C 337.075,103.593 336.075,104.26 337.5,108.5C 332.383,101.288 325.383,98.4551 316.5,100C 311.601,101.449 306.935,103.449 302.5,106C 293.104,112.03 283.437,117.53 273.5,122.5C 270.669,123.079 268.336,124.412 266.5,126.5C 251.396,135.892 236.062,145.059 220.5,154C 212.196,161.131 205.196,169.297 199.5,178.5C 197.588,180.657 195.921,182.991 194.5,185.5C 193.391,185.557 192.391,185.89 191.5,186.5C 197.219,172.599 205.886,160.766 217.5,151C 245.241,134.268 273.241,117.934 301.5,102C 308.54,98.2506 315.873,95.7506 323.5,94.5 Z"/></g>
<g><path style="opacity:0.8" fill="#bbe0b6" d="M 294.5,168.5 C 292.5,168.5 290.5,168.5 288.5,168.5C 290.594,166.006 292.594,166.006 294.5,168.5 Z"/></g>
<g><path style="opacity:1" fill="#020302" d="M 319.5,167.5 C 320.661,181.327 320.827,195.327 320,209.5C 319.283,210.044 318.783,210.711 318.5,211.5C 312.537,211.122 306.87,209.789 301.5,207.5C 300.662,207.158 300.328,206.492 300.5,205.5C 300.337,203.143 300.503,200.81 301,198.5C 306.111,189.94 310.944,181.274 315.5,172.5C 317.074,171.016 318.407,169.349 319.5,167.5 Z"/></g>
<g><path style="opacity:1" fill="#3ab72d" d="M 288.5,168.5 C 290.5,168.5 292.5,168.5 294.5,168.5C 294.5,182.5 294.5,196.5 294.5,210.5C 286.47,223.217 278.803,236.217 271.5,249.5C 270.263,250.965 269.263,252.632 268.5,254.5C 267.486,255.674 266.153,256.34 264.5,256.5C 262.973,256.427 261.973,257.094 261.5,258.5C 251.833,264.669 241.833,270.336 231.5,275.5C 229.973,275.427 228.973,276.094 228.5,277.5C 225.992,279.924 222.992,281.59 219.5,282.5C 217.973,282.427 216.973,283.094 216.5,284.5C 214.856,284.714 213.356,284.38 212,283.5C 211.5,261.169 211.333,238.836 211.5,216.5C 211.84,213.325 213.507,211.159 216.5,210C 235.229,198.637 254.229,187.804 273.5,177.5C 275.848,177.408 277.514,176.408 278.5,174.5C 280.027,174.573 281.027,173.906 281.5,172.5C 283.663,170.917 285.996,169.584 288.5,168.5 Z"/></g>
<g><path style="opacity:0.235" fill="#a4c09e" d="M 321.5,166.5 C 320.508,166.328 319.842,166.662 319.5,167.5C 318.407,169.349 317.074,171.016 315.5,172.5C 315.167,172.5 314.833,172.5 314.5,172.5C 315.435,170.139 316.768,167.972 318.5,166C 319.749,165.26 320.749,165.427 321.5,166.5 Z"/></g>
<g><path style="opacity:0.882" fill="#6f6f6f" d="M 319.5,167.5 C 319.842,166.662 320.508,166.328 321.5,166.5C 322.967,181.161 322.8,195.827 321,210.5C 320.329,211.252 319.496,211.586 318.5,211.5C 318.783,210.711 319.283,210.044 320,209.5C 320.827,195.327 320.661,181.327 319.5,167.5 Z"/></g>
<g><path style="opacity:0.447" fill="#c9e5c6" d="M 281.5,172.5 C 281.027,173.906 280.027,174.573 278.5,174.5C 278.973,173.094 279.973,172.427 281.5,172.5 Z"/></g>
<g><path style="opacity:0.588" fill="#aadaa3" d="M 278.5,174.5 C 277.514,176.408 275.848,177.408 273.5,177.5C 274.659,175.75 276.326,174.75 278.5,174.5 Z"/></g>
<g><path style="opacity:1" fill="#66ba57" d="M 314.5,172.5 C 314.833,172.5 315.167,172.5 315.5,172.5C 310.944,181.274 306.111,189.94 301,198.5C 300.503,200.81 300.337,203.143 300.5,205.5C 299.031,199.818 299.531,194.151 302,188.5C 305.945,182.916 310.112,177.583 314.5,172.5 Z"/></g>
<g><path style="opacity:1" fill="#f61f26" d="M 194.5,185.5 C 191.483,192.552 189.483,199.885 188.5,207.5C 187.336,242.664 187.169,277.998 188,313.5C 188.845,315.611 189.678,317.611 190.5,319.5C 191.067,321.969 191.067,324.302 190.5,326.5C 190.167,326.5 189.833,326.5 189.5,326.5C 188.041,322.954 186.874,319.288 186,315.5C 185.333,278.833 185.333,242.167 186,205.5C 187.133,198.937 188.967,192.604 191.5,186.5C 192.391,185.89 193.391,185.557 194.5,185.5 Z"/></g>
<g><path style="opacity:0.659" fill="#ffaaaa" d="M 199.5,178.5 C 194.12,189.057 190.454,200.057 188.5,211.5C 188.5,210.167 188.5,208.833 188.5,207.5C 189.483,199.885 191.483,192.552 194.5,185.5C 195.921,182.991 197.588,180.657 199.5,178.5 Z"/></g>
<g><path style="opacity:0.212" fill="#b9b9b9" d="M 301.5,207.5 C 306.87,209.789 312.537,211.122 318.5,211.5C 317.903,212.139 317.07,212.472 316,212.5C 312.849,211.907 309.682,211.407 306.5,211C 304.119,210.777 302.453,209.61 301.5,207.5 Z"/></g>
<g><path style="opacity:0.283" fill="#cbd4ca" d="M 294.5,168.5 C 295.268,169.263 295.768,170.263 296,171.5C 296.167,177.667 296.333,183.833 296.5,190C 295.297,203.928 295.297,217.761 296.5,231.5C 295.972,233.336 295.306,235.003 294.5,236.5C 294.5,227.833 294.5,219.167 294.5,210.5C 294.5,196.5 294.5,182.5 294.5,168.5 Z"/></g>
<g><path style="opacity:1" fill="#131612" d="M 294.5,210.5 C 294.5,219.167 294.5,227.833 294.5,236.5C 293.457,239.056 291.79,241.223 289.5,243C 284.942,245.73 280.275,248.23 275.5,250.5C 273.901,250.768 272.568,250.434 271.5,249.5C 278.803,236.217 286.47,223.217 294.5,210.5 Z"/></g>
<g><path style="opacity:0.691" fill="#fa6f76" d="M 188.5,207.5 C 188.5,208.833 188.5,210.167 188.5,211.5C 188.333,244.835 188.5,278.168 189,311.5C 190.079,314.063 190.579,316.729 190.5,319.5C 189.678,317.611 188.845,315.611 188,313.5C 187.169,277.998 187.336,242.664 188.5,207.5 Z"/></g>
<g><path style="opacity:1" fill="#f72c2e" d="M 91.5,333.5 C 98.1741,312.321 90.5075,299.821 68.5,296C 62.2358,273.864 47.9024,265.697 25.5,271.5C 22.0433,267.542 18.3767,263.708 14.5,260C 10.7378,257.794 7.07113,255.627 3.5,253.5C 12.9425,241.625 25.2758,237.125 40.5,240C 45.2234,241.196 49.5568,243.196 53.5,246C 57.3767,249.708 61.0433,253.542 64.5,257.5C 86.6279,251.727 100.961,259.727 107.5,281.5C 130.784,286.23 138.284,299.563 130,321.5C 125.561,327.976 119.395,331.81 111.5,333C 104.842,333.5 98.175,333.666 91.5,333.5 Z"/></g>
<g><path style="opacity:1" fill="#f62c2d" d="M 499.5,256.5 C 499.5,268.833 499.5,281.167 499.5,293.5C 491.971,273.234 477.637,265.901 456.5,271.5C 450.652,263.648 443.318,257.648 434.5,253.5C 446.053,239.859 460.386,236.026 477.5,242C 485.05,244.884 490.717,249.884 494.5,257C 496.107,256.981 497.774,256.815 499.5,256.5 Z"/></g>
<g><path style="opacity:0.478" fill="#fea6a8" d="M 340.5,239.5 C 339.903,244.017 338.237,248.017 335.5,251.5C 336.648,247.213 338.315,243.213 340.5,239.5 Z"/></g>
<g><path style="opacity:0.708" fill="#9fd997" d="M 211.5,216.5 C 211.333,238.836 211.5,261.169 212,283.5C 213.356,284.38 214.856,284.714 216.5,284.5C 215.06,286.765 213.393,286.932 211.5,285C 210.773,282.876 210.106,280.709 209.5,278.5C 210.557,260.776 210.557,243.109 209.5,225.5C 210.089,222.36 210.756,219.36 211.5,216.5 Z"/></g>
<g><path style="opacity:0.369" fill="#fca8ab" d="M 340.5,225.5 C 339.161,235.85 335.828,245.517 330.5,254.5C 330.167,254.5 329.833,254.5 329.5,254.5C 334.058,245.072 337.724,235.406 340.5,225.5 Z"/></g>
<g><path style="opacity:0.537" fill="#838f80" d="M 271.5,249.5 C 272.568,250.434 273.901,250.768 275.5,250.5C 273.337,252.083 271.004,253.416 268.5,254.5C 269.263,252.632 270.263,250.965 271.5,249.5 Z"/></g>
<g><path style="opacity:1" fill="#38b72b" d="M 434.5,253.5 C 443.318,257.648 450.652,263.648 456.5,271.5C 477.637,265.901 491.971,273.234 499.5,293.5C 499.5,311.167 499.5,328.833 499.5,346.5C 460.439,346.982 421.439,346.482 382.5,345C 365.209,335.794 360.709,322.294 369,304.5C 373.878,297.814 380.378,293.814 388.5,292.5C 388.305,267.862 400.472,254.529 425,252.5C 428.186,252.744 431.353,253.077 434.5,253.5 Z"/></g>
<g><path style="opacity:1" fill="#37b62a" d="M -0.5,253.5 C 0.833333,253.5 2.16667,253.5 3.5,253.5C 7.07113,255.627 10.7378,257.794 14.5,260C 18.3767,263.708 22.0433,267.542 25.5,271.5C 47.9024,265.697 62.2358,273.864 68.5,296C 90.5075,299.821 98.1741,312.321 91.5,333.5C 88.0025,340.483 82.3358,344.649 74.5,346C 49.5022,346.5 24.5022,346.667 -0.5,346.5C -0.5,315.5 -0.5,284.5 -0.5,253.5 Z"/></g>
<g><path style="opacity:0.345" fill="#fdaeb1" d="M 329.5,254.5 C 328.277,258.049 326.277,261.049 323.5,263.5C 324.759,259.975 326.759,256.975 329.5,254.5 Z"/></g>
<g><path style="opacity:0.059" fill="#cce7c9" d="M 264.5,256.5 C 264.027,257.906 263.027,258.573 261.5,258.5C 261.973,257.094 262.973,256.427 264.5,256.5 Z"/></g>
<g><path style="opacity:0.047" fill="#cfebcc" d="M 231.5,275.5 C 231.027,276.906 230.027,277.573 228.5,277.5C 228.973,276.094 229.973,275.427 231.5,275.5 Z"/></g>
<g><path style="opacity:0.031" fill="#d5ebd3" d="M 219.5,282.5 C 219.027,283.906 218.027,284.573 216.5,284.5C 216.973,283.094 217.973,282.427 219.5,282.5 Z"/></g>
<g><path style="opacity:1" fill="#ff635a" d="M 334.5,253.5 C 328.258,265.588 319.591,275.755 308.5,284C 287.769,296.364 266.769,308.197 245.5,319.5C 243.742,319.877 242.075,320.544 240.5,321.5C 240.167,321.167 239.833,320.833 239.5,320.5C 240.867,319.16 242.2,317.827 243.5,316.5C 246.331,315.921 248.664,314.588 250.5,312.5C 269.663,300.863 288.997,289.363 308.5,278C 314.03,273.636 319.03,268.802 323.5,263.5C 326.277,261.049 328.277,258.049 329.5,254.5C 329.833,254.5 330.167,254.5 330.5,254.5C 331.962,255.471 333.295,255.138 334.5,253.5 Z"/></g>
<g><path style="opacity:0.31" fill="#fcbdc0" d="M 250.5,312.5 C 248.664,314.588 246.331,315.921 243.5,316.5C 245.336,314.412 247.669,313.079 250.5,312.5 Z"/></g>
<g><path style="opacity:1" fill="#ff837e" d="M 243.5,316.5 C 242.2,317.827 240.867,319.16 239.5,320.5C 239.833,320.833 240.167,321.167 240.5,321.5C 242.075,320.544 243.742,319.877 245.5,319.5C 242.709,321.735 239.709,323.735 236.5,325.5C 237.833,322.167 236.833,321.167 233.5,322.5C 236.494,320 239.827,318 243.5,316.5 Z"/></g>
<g><path style="opacity:1" fill="#fa3a39" d="M 236.5,325.5 C 235.609,326.11 234.609,326.443 233.5,326.5C 231.83,326.751 230.33,327.418 229,328.5C 228.833,328 228.667,327.5 228.5,327C 229.544,325.826 230.544,324.659 231.5,323.5C 231.842,322.662 232.508,322.328 233.5,322.5C 236.833,321.167 237.833,322.167 236.5,325.5 Z"/></g>
<g><path style="opacity:0.039" fill="#f3c9c4" d="M 188.5,326.5 C 188.833,326.5 189.167,326.5 189.5,326.5C 189.833,326.5 190.167,326.5 190.5,326.5C 192.167,328.5 193.833,330.5 195.5,332.5C 192.573,331.243 190.239,329.243 188.5,326.5 Z"/></g>
<g><path style="opacity:1" fill="#fe615b" d="M 190.5,319.5 C 192.793,323.758 195.793,327.424 199.5,330.5C 199.5,330.833 199.5,331.167 199.5,331.5C 198.596,332.209 198.263,333.209 198.5,334.5C 196.973,334.573 195.973,333.906 195.5,332.5C 193.833,330.5 192.167,328.5 190.5,326.5C 191.067,324.302 191.067,321.969 190.5,319.5 Z"/></g>
<g><path style="opacity:0.435" fill="#ff9e9f" d="M 231.5,323.5 C 230.544,324.659 229.544,325.826 228.5,327C 228.667,327.5 228.833,328 229,328.5C 230.33,327.418 231.83,326.751 233.5,326.5C 223.241,335.818 211.575,338.485 198.5,334.5C 209.21,337.069 218.876,335.069 227.5,328.5C 226.675,327.614 225.675,327.281 224.5,327.5C 226.336,325.412 228.669,324.079 231.5,323.5 Z"/></g>
<g><path style="opacity:0.561" fill="#fc9c9f" d="M 199.5,331.5 C 199.5,331.167 199.5,330.833 199.5,330.5C 202.376,330.927 205.209,331.594 208,332.5C 211.478,331.671 214.978,331.004 218.5,330.5C 212.43,333.931 206.097,334.264 199.5,331.5 Z"/></g>
<g><path style="opacity:1" fill="#f92b2f" d="M 224.5,327.5 C 225.675,327.281 226.675,327.614 227.5,328.5C 218.876,335.069 209.21,337.069 198.5,334.5C 198.263,333.209 198.596,332.209 199.5,331.5C 206.097,334.264 212.43,333.931 218.5,330.5C 220.181,328.992 222.181,327.992 224.5,327.5 Z"/></g>
<g><path style="opacity:1" fill="#282828" d="M 91.5,401.5 C 91.3337,408.841 91.5003,416.174 92,423.5C 92.7172,422.956 93.2172,422.289 93.5,421.5C 95.9054,417.027 99.4054,413.694 104,411.5C 105.059,411.63 105.892,412.13 106.5,413C 103.167,417 99.8333,421 96.5,425C 99.9806,429.315 103.647,433.482 107.5,437.5C 105.579,438.641 103.579,438.808 101.5,438C 98.7065,434.895 96.0398,431.728 93.5,428.5C 93.2172,427.711 92.7172,427.044 92,426.5C 91.5012,430.486 91.3345,434.486 91.5,438.5C 90.1667,438.5 88.8333,438.5 87.5,438.5C 87.5,426.167 87.5,413.833 87.5,401.5C 88.8333,401.5 90.1667,401.5 91.5,401.5 Z"/></g>
<g><path style="opacity:0.121" fill="#dddddd" d="M 91.5,401.5 C 92.1667,408.167 92.8333,414.833 93.5,421.5C 93.2172,422.289 92.7172,422.956 92,423.5C 91.5003,416.174 91.3337,408.841 91.5,401.5 Z"/></g>
<g><path style="opacity:1" fill="#444444" d="M 112.5,401.5 C 116.485,401.629 117.818,403.463 116.5,407C 110.546,408.227 109.212,406.394 112.5,401.5 Z"/></g>
<g><path style="opacity:0.471" fill="#8f8f8f" d="M 232.5,414.5 C 232.217,415.289 231.717,415.956 231,416.5C 230.501,411.845 230.334,407.179 230.5,402.5C 229.5,402.5 228.5,402.5 227.5,402.5C 227.5,414.5 227.5,426.5 227.5,438.5C 226.505,426.345 226.171,414.011 226.5,401.5C 228.167,401.5 229.833,401.5 231.5,401.5C 231.182,406.032 231.515,410.366 232.5,414.5 Z"/></g>
<g><path style="opacity:1" fill="#090909" d="M 324.5,433.5 C 325.183,435.176 326.517,435.843 328.5,435.5C 328.5,436.5 328.5,437.5 328.5,438.5C 326.833,438.5 325.167,438.5 323.5,438.5C 320.916,437.952 319.916,436.285 320.5,433.5C 320.5,423.167 320.5,412.833 320.5,402.5C 321.5,402.5 322.5,402.5 323.5,402.5C 323.172,413.014 323.506,423.347 324.5,433.5 Z"/></g>
<g><path style="opacity:0.783" fill="#777777" d="M 324.5,433.5 C 323.506,423.347 323.172,413.014 323.5,402.5C 322.5,402.5 321.5,402.5 320.5,402.5C 320.5,412.833 320.5,423.167 320.5,433.5C 319.506,423.013 319.172,412.346 319.5,401.5C 321.167,401.5 322.833,401.5 324.5,401.5C 324.5,412.167 324.5,422.833 324.5,433.5 Z"/></g>
<g><path style="opacity:1" fill="#2a2a2a" d="M 415.5,438.5 C 413.549,438.773 412.049,438.107 411,436.5C 401.126,442.06 394.793,439.394 392,428.5C 390.773,415.059 396.607,409.892 409.5,413C 410.056,413.383 410.389,413.883 410.5,414.5C 410.783,415.289 411.283,415.956 412,416.5C 412.499,411.845 412.666,407.179 412.5,402.5C 413.5,402.5 414.5,402.5 415.5,402.5C 415.5,414.5 415.5,426.5 415.5,438.5 Z M 403.5,415.5 C 409.457,416.129 412.124,419.463 411.5,425.5C 412.143,431.22 409.643,434.553 404,435.5C 399.056,434.05 396.556,430.717 396.5,425.5C 396.586,420.439 398.919,417.106 403.5,415.5 Z"/></g>
<g><path style="opacity:0.533" fill="#868686" d="M 415.5,438.5 C 415.5,426.5 415.5,414.5 415.5,402.5C 414.5,402.5 413.5,402.5 412.5,402.5C 412.666,407.179 412.499,411.845 412,416.5C 411.283,415.956 410.783,415.289 410.5,414.5C 411.485,410.366 411.818,406.032 411.5,401.5C 413.167,401.5 414.833,401.5 416.5,401.5C 416.829,414.011 416.495,426.345 415.5,438.5 Z"/></g>
<g><path style="opacity:1" fill="#202020" d="M 157.5,406.5 C 157.5,408.5 157.5,410.5 157.5,412.5C 160.167,412.5 162.833,412.5 165.5,412.5C 165.5,413.5 165.5,414.5 165.5,415.5C 162.833,415.5 160.167,415.5 157.5,415.5C 157.177,421.69 157.51,427.69 158.5,433.5C 160.578,436.071 162.744,436.071 165,433.5C 168.22,437.688 166.887,439.688 161,439.5C 158.739,439.561 156.739,438.894 155,437.5C 153.575,430.615 153.075,423.615 153.5,416.5C 152.432,415.566 151.099,415.232 149.5,415.5C 149.5,414.5 149.5,413.5 149.5,412.5C 150.568,411.566 151.901,411.232 153.5,411.5C 153.5,409.833 153.5,408.167 153.5,406.5C 155.139,406.074 156.472,406.074 157.5,406.5 Z"/></g>
<g><path style="opacity:0.017" fill="#e8e8e8" d="M 125.5,412.5 C 123.821,412.285 122.821,412.952 122.5,414.5C 121.596,413.791 121.263,412.791 121.5,411.5C 123.099,411.232 124.432,411.566 125.5,412.5 Z"/></g>
<g><path style="opacity:0.028" fill="#f1f1f1" d="M 157.5,406.5 C 158.451,407.919 158.784,409.585 158.5,411.5C 161.059,411.198 163.393,411.532 165.5,412.5C 162.833,412.5 160.167,412.5 157.5,412.5C 157.5,410.5 157.5,408.5 157.5,406.5 Z"/></g>
<g><path style="opacity:1" fill="#353535" d="M 112.5,411.5 C 113.822,411.33 114.989,411.663 116,412.5C 116.5,421.16 116.666,429.827 116.5,438.5C 114.833,438.5 113.167,438.5 111.5,438.5C 111.196,429.416 111.529,420.416 112.5,411.5 Z"/></g>
<g><path style="opacity:1" fill="#363636" d="M 122.5,414.5 C 122.821,412.952 123.821,412.285 125.5,412.5C 128.982,418.745 131.815,425.412 134,432.5C 137.049,426.026 139.716,419.36 142,412.5C 143.965,411.115 145.798,411.282 147.5,413C 144.204,421.096 141.037,429.263 138,437.5C 135.619,438.435 133.119,438.768 130.5,438.5C 127.833,430.5 125.167,422.5 122.5,414.5 Z"/></g>
<g><path style="opacity:1" fill="#2e2e2e" d="M 178.5,411.5 C 189.833,410.167 194.833,415.167 193.5,426.5C 187.5,426.5 181.5,426.5 175.5,426.5C 175.295,431.792 177.795,434.792 183,435.5C 186.041,434.814 188.375,433.147 190,430.5C 193.95,432.675 193.783,435.175 189.5,438C 174.213,441.381 168.046,435.214 171,419.5C 172.353,415.65 174.853,412.983 178.5,411.5 Z M 188.5,419.5 C 188.5,420.5 188.5,421.5 188.5,422.5C 183.706,423.097 179.373,422.43 175.5,420.5C 179.47,414.417 183.803,414.084 188.5,419.5 Z"/></g>
<g><path style="opacity:1" fill="#373737" d="M 206.5,411.5 C 210.273,411.263 213.94,411.763 217.5,413C 221.182,415.346 221.348,417.846 218,420.5C 211.443,413.573 206.443,414.573 203,423.5C 202.266,432.444 206.099,435.944 214.5,434C 216.036,429.367 218.369,428.701 221.5,432C 216.96,439.873 210.627,441.54 202.5,437C 197.874,431.537 196.708,425.37 199,418.5C 200.742,415.254 203.242,412.921 206.5,411.5 Z"/></g>
<g><path style="opacity:1" fill="#222222" d="M 232.5,414.5 C 234.166,412.172 236.499,411.172 239.5,411.5C 242.514,411.258 245.014,412.258 247,414.5C 248.435,422.389 248.935,430.389 248.5,438.5C 247.167,438.5 245.833,438.5 244.5,438.5C 244.839,431.426 244.339,424.426 243,417.5C 238.396,414.81 234.729,415.81 232,420.5C 231.501,426.491 231.334,432.491 231.5,438.5C 230.167,438.5 228.833,438.5 227.5,438.5C 227.5,426.5 227.5,414.5 227.5,402.5C 228.5,402.5 229.5,402.5 230.5,402.5C 230.334,407.179 230.501,411.845 231,416.5C 231.717,415.956 232.217,415.289 232.5,414.5 Z"/></g>
<g><path style="opacity:1" fill="#393939" d="M 260.5,411.5 C 263.187,411.336 265.854,411.503 268.5,412C 273.857,413.158 274.523,415.324 270.5,418.5C 267.961,415.96 264.961,415.126 261.5,416C 259.473,417.396 259.14,419.062 260.5,421C 265.594,422.026 270.094,424.193 274,427.5C 275.758,433.15 273.924,436.983 268.5,439C 262.311,440.493 257.311,438.826 253.5,434C 254.399,432.764 255.566,431.93 257,431.5C 260.765,434.958 264.765,435.625 269,433.5C 269.72,431.888 269.554,430.388 268.5,429C 264.051,427.688 259.884,425.854 256,423.5C 253.675,417.967 255.175,413.967 260.5,411.5 Z"/></g>
<g><path style="opacity:1" fill="#3a3a3a" d="M 300.5,411.5 C 306.485,410.336 311.152,412.17 314.5,417C 312.578,421.617 310.578,421.617 308.5,417C 299.56,415.271 295.727,419.104 297,428.5C 301.371,437.485 306.371,437.818 312,429.5C 314.065,430.628 314.732,432.294 314,434.5C 307.366,441.09 300.699,441.09 294,434.5C 289.238,424.64 291.405,416.973 300.5,411.5 Z"/></g>
<g><path style="opacity:1" fill="#353535" d="M 341.5,411.5 C 354.983,411.403 360.149,418.07 357,431.5C 352.977,439.377 346.81,441.543 338.5,438C 332.587,432.557 331.087,426.057 334,418.5C 335.767,415.228 338.267,412.895 341.5,411.5 Z M 344.5,415.5 C 350.457,416.129 353.124,419.463 352.5,425.5C 353.124,431.273 350.624,434.606 345,435.5C 337.577,432.354 335.577,427.021 339,419.5C 340.5,417.531 342.333,416.198 344.5,415.5 Z"/></g>
<g><path style="opacity:1" fill="#3a3a3a" d="M 381.5,438.5 C 381.657,437.127 381.49,435.793 381,434.5C 380.283,435.044 379.783,435.711 379.5,436.5C 375.399,440.15 370.899,440.483 366,437.5C 365.333,436.167 364.667,434.833 364,433.5C 363.333,426.5 363.333,419.5 364,412.5C 365.333,411.167 366.667,411.167 368,412.5C 368.333,419.167 368.667,425.833 369,432.5C 373.333,436.291 377,435.624 380,430.5C 380.333,424.5 380.667,418.5 381,412.5C 382.333,411.167 383.667,411.167 385,412.5C 385.5,421.16 385.666,429.827 385.5,438.5C 384.167,438.5 382.833,438.5 381.5,438.5 Z"/></g>
<g><path style="opacity:0.102" fill="#d7d7d7" d="M 149.5,412.5 C 149.5,413.5 149.5,414.5 149.5,415.5C 151.099,415.232 152.432,415.566 153.5,416.5C 151.833,416.5 150.167,416.5 148.5,416.5C 148.232,414.901 148.566,413.568 149.5,412.5 Z"/></g>
<g><path style="opacity:0.053" fill="#e3e3e3" d="M 165.5,412.5 C 166.434,413.568 166.768,414.901 166.5,416.5C 163.833,416.5 161.167,416.5 158.5,416.5C 158.5,422.167 158.5,427.833 158.5,433.5C 157.51,427.69 157.177,421.69 157.5,415.5C 160.167,415.5 162.833,415.5 165.5,415.5C 165.5,414.5 165.5,413.5 165.5,412.5 Z"/></g>
<g><path style="opacity:0.342" fill="#9f9f9f" d="M 188.5,419.5 C 189.434,420.568 189.768,421.901 189.5,423.5C 184.5,423.5 179.5,423.5 174.5,423.5C 174.263,422.209 174.596,421.209 175.5,420.5C 179.373,422.43 183.706,423.097 188.5,422.5C 188.5,421.5 188.5,420.5 188.5,419.5 Z"/></g>
<g><path style="opacity:0.121" fill="#dfdfdf" d="M 93.5,428.5 C 92.8333,431.833 92.1667,435.167 91.5,438.5C 91.3345,434.486 91.5012,430.486 92,426.5C 92.7172,427.044 93.2172,427.711 93.5,428.5 Z"/></g>
<g><path style="opacity:1" fill="#454545" d="M 281.5,432.5 C 286.493,432.997 287.493,435.164 284.5,439C 279.382,438.824 278.382,436.658 281.5,432.5 Z"/></g>
<g><path style="opacity:0.094" fill="#dddddd" d="M 381.5,438.5 C 380.833,437.833 380.167,437.167 379.5,436.5C 379.783,435.711 380.283,435.044 381,434.5C 381.49,435.793 381.657,437.127 381.5,438.5 Z"/></g>
<g><path style="opacity:0.443" fill="#adadad" d="M 324.5,433.5 C 326.042,434.301 327.708,434.634 329.5,434.5C 329.5,436.167 329.5,437.833 329.5,439.5C 327.265,439.795 325.265,439.461 323.5,438.5C 325.167,438.5 326.833,438.5 328.5,438.5C 328.5,437.5 328.5,436.5 328.5,435.5C 326.517,435.843 325.183,435.176 324.5,433.5 Z"/></g>
</svg>
